<svg width="512" height="512" viewBox="0 0 512 512" fill="none" xmlns="http://www.w3.org/2000/svg">
<path d="M507.172 468.433L476.168 437.61C473.23 434.69 468.482 434.704 465.561 437.641C462.64 440.579 462.654 445.328 465.591 448.248L496.594 479.07C496.768 479.243 497.23 479.702 496.89 480.525C496.553 481.343 495.906 481.343 495.662 481.343H304.283C303.783 481.343 303.316 481.053 303.095 480.609L284.114 442.225C282.956 439.883 280.663 438.312 278.059 438.078L132.645 425.047C125.831 424.437 119.272 421.579 114.18 417L24.1976 336.071C15.6887 328.422 12.7164 316.097 16.7988 305.405C20.9652 294.512 31.2133 287.474 42.9065 287.474C48.9651 287.474 54.7487 289.428 59.6362 293.128L143.714 356.684C145.016 357.668 146.604 358.201 148.236 358.201H331.686C359.614 358.201 385.908 369.048 405.725 388.744L440.819 423.628C443.757 426.548 448.507 426.535 451.426 423.596C454.346 420.658 454.331 415.908 451.394 412.988L416.3 378.104C407.897 369.751 398.471 362.796 388.311 357.345L375.226 269.493C372.795 253.166 360.987 239.605 345.136 234.947C344.695 234.818 344.25 234.707 343.805 234.592V155.963C343.805 144.098 335.601 134.119 324.571 131.391C337.214 118.716 346.864 104.409 351.75 91.0832C357.347 75.8136 356.176 63.1493 348.45 55.4256C348.448 55.4236 348.446 55.4226 348.445 55.4206L315.47 22.4372C300.618 7.5937 267.904 17.9157 239.379 46.4436C227.418 58.4039 217.995 72.0933 212.895 84.7665H198.534C193.439 72.0953 184.019 58.4059 172.056 46.4426C159.351 33.7384 144.99 24.0424 131.616 19.1409C116.345 13.5443 103.683 14.7154 95.9618 22.4372L62.9755 55.4246L62.9765 55.4256C62.9755 55.4256 62.9755 55.4266 62.9745 55.4276C48.151 70.2531 58.416 102.886 86.8509 131.392C75.8218 134.123 67.62 144.101 67.62 155.962V237.588C63.2905 236.192 58.7461 235.47 54.1076 235.47C45.1067 235.47 36.4168 238.202 28.97 243.375C14.9016 253.169 7.9069 270.223 10.7302 286.889C7.39084 290.677 4.67857 295.102 2.78538 300.051C-3.49526 316.502 1.0782 335.462 14.1675 347.227L104.149 428.156C111.638 434.889 121.283 439.093 131.306 439.991L272.532 452.646L289.65 487.263C292.424 492.866 298.031 496.346 304.283 496.346H495.662C502.301 496.346 508.226 492.383 510.757 486.249C513.289 480.112 511.882 473.12 507.172 468.433ZM360.39 271.703L372.071 350.138C363.007 346.907 353.53 344.775 343.806 343.805V250.391C352.586 254.088 358.969 262.157 360.39 271.703ZM337.666 85.9187C333.5 97.2848 325.038 109.712 313.841 120.909C310.314 124.436 306.638 127.691 302.895 130.648H257.454C259.984 119.899 268.101 104.901 282.968 90.0291C294.164 78.8319 306.59 70.3721 317.957 66.2066C327.149 62.8383 334.584 62.7723 337.845 66.0326C341.103 69.291 341.037 76.7247 337.666 85.9187ZM173.785 130.648C173.39 129.284 173.183 127.861 173.183 126.417V114.924C173.183 106.566 179.985 99.7661 188.347 99.7661H223.081C231.443 99.7661 238.245 106.566 238.245 114.924V126.417C238.245 127.86 238.037 129.284 237.642 130.648H173.785ZM249.988 57.0497C274.421 32.6172 298.418 26.6016 304.865 33.0443L321.438 49.621C318.667 50.199 315.783 51.0261 312.796 52.1212C299.426 57.0207 285.064 66.7167 272.358 79.423C263.947 87.8378 256.973 96.8338 251.799 105.701C248.486 95.4156 239.793 87.5248 229.047 85.3596C233.695 75.9676 241 66.0376 249.988 57.0497ZM73.5816 66.0356C78.9971 60.6241 96.3589 64.0464 116.052 79.137C119.34 81.6582 124.049 81.0332 126.568 77.7458C129.088 74.4575 128.464 69.749 125.176 67.2298C112.793 57.7408 100.66 51.7832 90.0392 49.576L106.57 33.0453C109.827 29.789 117.26 29.857 126.454 33.2263C137.824 37.3937 150.251 45.8536 161.447 57.0497C170.437 66.0396 177.741 75.9686 182.384 85.3596C171.624 87.5258 162.921 95.4336 159.616 105.737C157.213 101.608 154.424 97.4438 151.26 93.3144C148.742 90.0271 144.034 89.402 140.744 91.9203C137.456 94.4395 136.832 99.148 139.35 102.436C146.918 112.316 152.071 122.348 153.998 130.648H108.532C104.782 127.681 101.103 124.427 97.583 120.914C73.1485 96.4787 67.1359 72.4823 73.5816 66.0356ZM92.9315 145.65H318.504C324.185 145.65 328.805 150.275 328.805 155.961V194.425H273.49C269.346 194.425 265.989 197.783 265.989 201.925C265.989 206.068 269.346 209.426 273.49 209.426H328.805V343.2H150.752L82.6205 291.698V209.426H238.486C242.63 209.426 245.987 206.068 245.987 201.925C245.987 197.783 242.63 194.425 238.486 194.425H82.6205V155.961C82.6205 150.275 87.2459 145.65 92.9315 145.65ZM37.5349 255.691C42.4504 252.276 48.181 250.471 54.1066 250.471C58.8631 250.471 63.4645 251.634 67.619 253.827V280.389C60.3372 275.21 51.8234 272.473 42.9065 272.473C36.6718 272.473 30.7062 273.779 25.3027 276.181C26.2468 268.074 30.5792 260.533 37.5349 255.691Z" fill="#673231"/>
</svg>
